# xmcd
#
# Track frame offsets: 
#        150
#        14175
#        34424
#        49424
#        66224
#        88574
#        114074
#        125474
#        144749
#        165074
#
# Disc length: 2397 seconds
#
# Revision: 0
# Processed by: cddbd v1.5.2PL0 Copyright (c) Steve Scherf et al.
# Submitted via: ExactAudioCopy v0.99pb3
#
DISCID=85095b0a
DTITLE=Jimmy Dawkins - Transatlantic 770
DYEAR=1900
DGENRE=Blues
TTITLE0=Things I Used To Do
TTITLE1=Make My Way In This World
TTITLE2=Think Twice Before You Speak
TTITLE3=1011 Woodland
TTITLE4=The Mighty Hawk
TTITLE5=All For Business
TTITLE6=High Cost Of Living
TTITLE7=Stoned Dead
TTITLE8=Love And Understanding
TTITLE9=No More Trouble
EXTD=
EXTT0=
EXTT1=
EXTT2=
EXTT3=
EXTT4=
EXTT5=
EXTT6=
EXTT7=
EXTT8=
EXTT9=
PLAYORDER=
